<mxfile host="app.diagrams.net" agent="Mozilla/5.0 (Windows NT 10.0; Win64; x64) AppleWebKit/537.36 (KHTML, like Gecko) Chrome/131.0.0.0 Safari/537.36" version="25.0.1">
  <diagram name="第 1 页" id="b4DpRnWAUJ3Lx1-ivTeW">
    <mxGraphModel dx="1434" dy="756" grid="1" gridSize="10" guides="1" tooltips="1" connect="1" arrows="1" fold="1" page="1" pageScale="1" pageWidth="1654" pageHeight="1169" math="0" shadow="0">
      <root>
        <mxCell id="0" />
        <mxCell id="1" parent="0" />
        <mxCell id="7b2Ijr7MPxa-vnlb6QYu-8" style="edgeStyle=orthogonalEdgeStyle;rounded=0;orthogonalLoop=1;jettySize=auto;html=1;entryX=0.5;entryY=0;entryDx=0;entryDy=0;endArrow=block;endFill=1;strokeWidth=3;" edge="1" parent="1" source="7b2Ijr7MPxa-vnlb6QYu-1" target="7b2Ijr7MPxa-vnlb6QYu-6">
          <mxGeometry relative="1" as="geometry" />
        </mxCell>
        <mxCell id="7b2Ijr7MPxa-vnlb6QYu-1" value="开始" style="rounded=1;whiteSpace=wrap;html=1;fontSize=20;fontFamily=黑体;" vertex="1" parent="1">
          <mxGeometry x="440" y="160" width="160" height="80" as="geometry" />
        </mxCell>
        <mxCell id="7b2Ijr7MPxa-vnlb6QYu-10" style="edgeStyle=orthogonalEdgeStyle;shape=connector;rounded=0;orthogonalLoop=1;jettySize=auto;html=1;entryX=0.5;entryY=0;entryDx=0;entryDy=0;strokeColor=default;strokeWidth=3;align=center;verticalAlign=middle;fontFamily=Helvetica;fontSize=11;fontColor=default;labelBackgroundColor=default;endArrow=block;endFill=1;" edge="1" parent="1" source="7b2Ijr7MPxa-vnlb6QYu-6" target="7b2Ijr7MPxa-vnlb6QYu-7">
          <mxGeometry relative="1" as="geometry" />
        </mxCell>
        <mxCell id="7b2Ijr7MPxa-vnlb6QYu-6" value="云平台下发&lt;br&gt;作业区域信息" style="rounded=0;whiteSpace=wrap;html=1;fontSize=20;fontFamily=黑体;spacingLeft=5;spacingRight=5;" vertex="1" parent="1">
          <mxGeometry x="440" y="280" width="160" height="80" as="geometry" />
        </mxCell>
        <mxCell id="7b2Ijr7MPxa-vnlb6QYu-12" value="" style="edgeStyle=orthogonalEdgeStyle;shape=connector;rounded=0;orthogonalLoop=1;jettySize=auto;html=1;strokeColor=default;strokeWidth=3;align=center;verticalAlign=middle;fontFamily=Helvetica;fontSize=11;fontColor=default;labelBackgroundColor=default;endArrow=block;endFill=1;" edge="1" parent="1" source="7b2Ijr7MPxa-vnlb6QYu-7" target="7b2Ijr7MPxa-vnlb6QYu-11">
          <mxGeometry relative="1" as="geometry" />
        </mxCell>
        <mxCell id="7b2Ijr7MPxa-vnlb6QYu-7" value="&lt;font style=&quot;font-size: 20px;&quot;&gt;农机前往&lt;br&gt;作业区域&lt;/font&gt;" style="rounded=0;whiteSpace=wrap;html=1;fontSize=25;fontFamily=黑体;spacingLeft=5;spacingRight=5;" vertex="1" parent="1">
          <mxGeometry x="440" y="400" width="160" height="80" as="geometry" />
        </mxCell>
        <mxCell id="7b2Ijr7MPxa-vnlb6QYu-19" style="edgeStyle=orthogonalEdgeStyle;shape=connector;rounded=0;orthogonalLoop=1;jettySize=auto;html=1;entryX=0.5;entryY=0;entryDx=0;entryDy=0;strokeColor=default;strokeWidth=3;align=center;verticalAlign=middle;fontFamily=Helvetica;fontSize=11;fontColor=default;labelBackgroundColor=default;endArrow=block;endFill=1;" edge="1" parent="1" source="7b2Ijr7MPxa-vnlb6QYu-11" target="7b2Ijr7MPxa-vnlb6QYu-15">
          <mxGeometry relative="1" as="geometry" />
        </mxCell>
        <mxCell id="7b2Ijr7MPxa-vnlb6QYu-11" value="&lt;font style=&quot;font-size: 20px;&quot;&gt;执行坐标转换&lt;br&gt;(转二维坐标系)&lt;/font&gt;" style="rounded=0;whiteSpace=wrap;html=1;fontSize=25;fontFamily=黑体;spacingLeft=5;spacingRight=5;" vertex="1" parent="1">
          <mxGeometry x="440" y="520" width="160" height="80" as="geometry" />
        </mxCell>
        <mxCell id="7b2Ijr7MPxa-vnlb6QYu-20" style="edgeStyle=orthogonalEdgeStyle;shape=connector;rounded=0;orthogonalLoop=1;jettySize=auto;html=1;entryX=0.5;entryY=0;entryDx=0;entryDy=0;strokeColor=default;strokeWidth=3;align=center;verticalAlign=middle;fontFamily=Helvetica;fontSize=11;fontColor=default;labelBackgroundColor=default;endArrow=block;endFill=1;" edge="1" parent="1" source="7b2Ijr7MPxa-vnlb6QYu-15" target="7b2Ijr7MPxa-vnlb6QYu-17">
          <mxGeometry relative="1" as="geometry" />
        </mxCell>
        <mxCell id="7b2Ijr7MPxa-vnlb6QYu-15" value="&lt;span style=&quot;font-size: 20px;&quot;&gt;路径规划&lt;/span&gt;" style="rounded=0;whiteSpace=wrap;html=1;fontSize=25;fontFamily=黑体;spacingLeft=5;spacingRight=5;" vertex="1" parent="1">
          <mxGeometry x="440" y="640" width="160" height="80" as="geometry" />
        </mxCell>
        <mxCell id="7b2Ijr7MPxa-vnlb6QYu-17" value="结束" style="rounded=1;whiteSpace=wrap;html=1;fontSize=20;fontFamily=黑体;" vertex="1" parent="1">
          <mxGeometry x="440" y="760" width="160" height="80" as="geometry" />
        </mxCell>
      </root>
    </mxGraphModel>
  </diagram>
</mxfile>
